# xmcd
#
# Track frame offsets: 
#        150
#        17365
#        34461
#        52683
#        74656
#
# Disc length: 1186 seconds
#
# Revision: 0
# Processed by: cddbd v1.5.2PL0 Copyright (c) Steve Scherf et al.
# Submitted via: ExactAudioCopy v0.99pb5
#
DISCID=3a04a005
DTITLE=Paloma Faith - Fall to Grace (Deluxe Edition) CD2
DYEAR=2012
DGENRE=Blues
TTITLE0=Picking Up The Pieces - Acoustic
TTITLE1=30 Minute Love Affair - Acoustic
TTITLE2=Black and Blue - Acoustic
TTITLE3=Just Be - Acoustic
TTITLE4=Agony - Acoustic
EXTD=
EXTT0=
EXTT1=
EXTT2=
EXTT3=
EXTT4=
PLAYORDER=
